<?xml version="1.0"?>
<svg width="361" height="321" xmlns="http://www.w3.org/2000/svg" xmlns:svg="http://www.w3.org/2000/svg">
  <polyline points="150,266 150,266 149,267 147,269 145,270 142,272 140,275 137,277 134,278 130,279 128,282 126,283 125,284 124,286 123,287 123,288 123,289 124,289 125,289 126,289 127,289 126,290 124,290 122,292 120,293 116,295 114,297 110,299 107,301 104,302 99,303 96,304 91,305 89,306 87,306 86,307 85,307 86,307 87,306 89,304 89,303 87,303 85,303 82,303 77,303 73,303 69,304 66,305 63,306 62,306 61,306 60,306 59,306 58,305 57,305 55,304 54,303 52,302 50,301 49,300 48,299 47,299 47,298 47,297 47,296" stroke-width="1" stroke="#000000" fill="none"/>
  <ellipse cx="286" cy="148" rx="35" ry="31" stroke-width="1" stroke="#000000" fill="#ffffff"/>
  <line x1="132" y1="31" x2="230" y2="30" stroke-width="1" stroke="#000000" fill="#ffffff"/>
  <polyline points="250,204 250,204 249,208 247,212 244,217 239,222 234,227 230,232 226,238 223,243 221,248 219,251 218,255 218,256 219,259 221,261 224,262 229,264 233,265 238,265 241,265 245,265 247,265 248,265 247,267 246,269 244,273 244,277 244,278 244,281 244,285 244,287 245,288 246,289 247,289 247,291 248,291 249,293 250,294 252,296 255,298 258,300 261,302 263,302 264,303 265,303 266,303" stroke-width="1" stroke="#000000" fill="none"/>
  <ellipse cx="178" cy="158" rx="40" ry="39" stroke-width="1" stroke="#000000" fill="#ffffff"/>
  <polyline points="40,88 40,88 38,90 35,92 31,95 27,98 22,103 18,109 14,115 12,122 11,129 11,135 12,142 16,150 19,156 24,161 29,166 36,171 43,174 50,177 55,178 61,180 64,181 66,181 67,181 67,182 66,183 64,184 62,186 61,188 60,190 59,192 59,194 59,195 59,197 61,199 63,200 67,203 72,203 75,205 79,206 81,207 82,207 82,208 82,209 82,213 80,216 78,218 76,221 74,225 73,227 72,230 72,231 72,233 74,235 77,237 81,238 84,239 86,239 87,239 87,240 87,241 86,242 85,243 84,245 83,246 82,248 81,249 80,251 81,251 82,251 83,251 84,250" stroke-width="1" stroke="#000000" fill="none"/>
  <rect x="253" y="53" width="56" height="40" stroke-width="1" stroke="#000000" fill="#ffffff"/>
  <rect x="84" y="64" width="98" height="44" stroke-width="1" stroke="#000000" fill="#ffffff"/>
</svg>
